<?xml version="1.0" encoding="UTF-8" standalone="no"?>
<!-- Created with Inkscape (http://www.inkscape.org/) -->

<svg
   width="768"
   height="512"
   viewBox="0 0 203.2 135.46667"
   version="1.1"
   id="svg5"
   inkscape:version="1.2 (dc2aedaf03, 2022-05-15)"
   sodipodi:docname="back1.svg"
   inkscape:export-filename="back1.png"
   inkscape:export-xdpi="96"
   inkscape:export-ydpi="96"
   xmlns:inkscape="http://www.inkscape.org/namespaces/inkscape"
   xmlns:sodipodi="http://sodipodi.sourceforge.net/DTD/sodipodi-0.dtd"
   xmlns:xlink="http://www.w3.org/1999/xlink"
   xmlns="http://www.w3.org/2000/svg"
   xmlns:svg="http://www.w3.org/2000/svg">
  <sodipodi:namedview
     id="namedview7"
     pagecolor="#505050"
     bordercolor="#eeeeee"
     borderopacity="1"
     inkscape:showpageshadow="0"
     inkscape:pageopacity="0"
     inkscape:pagecheckerboard="0"
     inkscape:deskcolor="#505050"
     inkscape:document-units="mm"
     showgrid="false"
     inkscape:zoom="1.0544998"
     inkscape:cx="419.63025"
     inkscape:cy="283.54677"
     inkscape:window-width="1920"
     inkscape:window-height="1017"
     inkscape:window-x="-8"
     inkscape:window-y="-8"
     inkscape:window-maximized="1"
     inkscape:current-layer="layer3" />
  <defs
     id="defs2">
    <linearGradient
       inkscape:collect="always"
       id="linearGradient17231">
      <stop
         style="stop-color:#49526a;stop-opacity:1;"
         offset="0"
         id="stop17227" />
      <stop
         style="stop-color:#525100;stop-opacity:1;"
         offset="1"
         id="stop17229" />
    </linearGradient>
    <linearGradient
       id="linearGradient17217"
       inkscape:swatch="solid">
      <stop
         style="stop-color:#ff0000;stop-opacity:1;"
         offset="0"
         id="stop17215" />
    </linearGradient>
    <linearGradient
       inkscape:collect="always"
       xlink:href="#linearGradient17231"
       id="linearGradient17233"
       x1="0"
       y1="67.73333"
       x2="203.20001"
       y2="67.73333"
       gradientUnits="userSpaceOnUse" />
  </defs>
  <g
     inkscape:groupmode="layer"
     id="layer3"
     inkscape:label="Layer 1"
     style="fill-opacity:1;fill:url(#linearGradient17233)">
    <rect
       style="fill:url(#linearGradient17233);fill-opacity:1;stroke:none;stroke-width:5.63589;stroke-linecap:square;stroke-linejoin:round;stroke-dasharray:8.45382;stroke-dashoffset:0;stroke-opacity:0.286275;paint-order:stroke fill markers"
       id="rect17013"
       width="203.20001"
       height="135.46666"
       x="0"
       y="-1.9113922e-09" />
  </g>
  <g
     inkscape:label="Слой 1"
     inkscape:groupmode="layer"
     id="layer1"
     sodipodi:insensitive="true">
    <path
       style="fill:#000000;fill-opacity:1;stroke:#000000;stroke-width:0.264583px;stroke-linecap:butt;stroke-linejoin:miter;stroke-opacity:1"
       d="M 20.072708,68.749026 35.127239,12.043625 v 0 l 98.110231,26.578359 10.56698,17.457297 14.58152,-10.644494 26.78476,7.256073 V 98.105361 L 157.31916,103.62186 142.19232,90.711341 126.66831,109.6928 29.356335,128.96715 Z"
       id="path467"
       sodipodi:nodetypes="ccccccccccccc" />
    <path
       style="fill:#50a629;fill-opacity:1;stroke:#f4f6f8;stroke-width:21.301;stroke-linecap:square;stroke-linejoin:round;stroke-dasharray:31.9515;stroke-dashoffset:0;stroke-opacity:0.286275;paint-order:stroke fill markers"
       d="m 110.89255,486.24951 c -0.13964,-1.64048 -0.83571,-6.63041 -1.35595,-9.72025 -0.30736,-1.82551 -0.73697,-4.59933 -0.95469,-6.16406 -0.21772,-1.56472 -0.64446,-4.33855 -0.94832,-6.16406 -0.30385,-1.82551 -0.73059,-4.59933 -0.94831,-6.16406 -0.21772,-1.56472 -0.64447,-4.33855 -0.94832,-6.16406 -0.30385,-1.82551 -0.7306,-4.59933 -0.94832,-6.16406 -0.21772,-1.56472 -0.64446,-4.33855 -0.94831,-6.16406 -0.30386,-1.82551 -0.7306,-4.59933 -0.94832,-6.16406 -0.21772,-1.56472 -0.64446,-4.33855 -0.94832,-6.16406 -0.30385,-1.82551 -0.73059,-4.59933 -0.94831,-6.16406 -0.21772,-1.56472 -0.64447,-4.33855 -0.94832,-6.16406 -0.303856,-1.82551 -0.734806,-4.59933 -0.957669,-6.16406 -0.222862,-1.56472 -0.618473,-4.12518 -0.879133,-5.6899 -0.260661,-1.56472 -0.72277,-5.11554 -1.026908,-7.89071 -0.30414,-2.77516 -0.930438,-6.03854 -1.391774,-7.25194 -0.461336,-1.21341 -0.650614,-2.39438 -0.420617,-2.62437 0.229997,-0.23 -0.03676,-2.72764 -0.592792,-5.55033 -0.556033,-2.82268 -1.223326,-7.24059 -1.482874,-9.81756 -0.259548,-2.57698 -0.673055,-5.01088 -0.918904,-5.40867 -0.24585,-0.39779 -0.668311,-2.98353 -0.938804,-5.74608 -0.270492,-2.76255 -0.710501,-5.65935 -0.9778,-6.43734 -0.267298,-0.77799 -0.694041,-3.55182 -0.948317,-6.16406 -0.254276,-2.61224 -0.673344,-5.36608 -0.931264,-6.11962 -0.257919,-0.75354 -0.671578,-3.314 -0.919241,-5.6899 -0.247665,-2.37591 -0.696188,-5.38668 -0.996719,-6.69062 -0.300532,-1.30393 -0.714636,-3.86439 -0.920233,-5.6899 -0.205596,-1.82551 -0.655602,-4.81271 -1.000011,-6.63822 -0.868351,-4.60261 -1.037552,-5.63064 -1.63886,-9.95732 -0.289946,-2.0863 -0.774988,-5.28687 -1.07787,-7.11238 -0.302883,-1.82551 -0.72883,-4.59934 -0.94655,-6.16406 -0.21772,-1.56472 -0.644462,-4.33855 -0.948317,-6.16406 -0.303855,-1.82551 -0.730597,-4.59934 -0.948317,-6.16406 -0.21772,-1.56472 -0.644462,-4.33855 -0.948317,-6.16406 -1.79871,-10.80637 -1.873251,-13.70218 -0.488213,-18.96634 0.480305,-1.82551 1.129208,-4.59934 1.442006,-6.16406 0.873336,-4.36872 0.95695,-4.67446 1.556066,-5.6899 0.522161,-0.88501 2.596903,-9.0665 3.037096,-11.97641 0.108163,-0.71502 0.44844,-1.72677 0.756172,-2.24835 0.522161,-0.885 2.596903,-9.06649 3.037095,-11.97641 0.108164,-0.71502 0.448441,-1.72677 0.756173,-2.24834 0.497662,-0.84349 1.781996,-5.88876 3.25897,-12.80228 0.278567,-1.30394 0.600225,-2.79753 0.714794,-3.31911 0.114569,-0.52157 0.460088,-1.37506 0.767821,-1.89663 0.52216,-0.88501 2.596902,-9.0665 3.037095,-11.97641 0.108163,-0.71502 0.44844,-1.72677 0.756173,-2.24835 0.52216,-0.885 2.596902,-9.06649 3.037095,-11.97641 0.108158,-0.71502 0.448438,-1.72677 0.756168,-2.24834 0.48034,-0.81411 2.30572,-7.88935 3.08986,-11.97641 0.13719,-0.71502 0.94594,-3.64711 1.79724,-6.51577 0.85129,-2.86866 1.79814,-6.49597 2.10411,-8.0607 0.84198,-4.30588 0.93979,-4.66642 1.54365,-5.6899 0.52216,-0.88501 2.5969,-9.06649 3.03709,-11.97641 0.10817,-0.71501 0.44844,-1.72677 0.75617,-2.24834 0.52217,-0.88501 2.59691,-9.0665 3.0371,-11.97641 0.10816,-0.71502 0.44844,-1.72677 0.75617,-2.24835 0.49766,-0.84348 1.782,-5.88876 3.25897,-12.802274 0.27857,-1.303936 0.60023,-2.797535 0.7148,-3.319109 0.11457,-0.521575 0.46008,-1.37506 0.76782,-1.896634 0.52216,-0.88501 2.5969,-9.066496 3.03709,-11.976413 0.10817,-0.715014 0.44844,-1.726767 0.75618,-2.248341 0.52216,-0.88501 2.5969,-9.066497 3.03709,-11.976413 0.10816,-0.715014 0.44844,-1.726767 0.75617,-2.248342 0.56234,-0.953098 2.60725,-9.140324 3.10977,-12.45057 0.18668,-1.229685 0.96645,-1.717794 2.54079,-1.590446 3.00618,0.24317 4.90652,0.68646 6.07194,1.416391 0.91585,0.573619 7.22705,1.945878 8.74558,1.901573 0.4017,-0.01172 1.15711,0.330958 1.67868,0.761505 1.05447,0.870442 7.82384,2.298503 8.36998,1.765725 0.19114,-0.186467 0.94655,0.156211 1.67868,0.761505 0.73213,0.605294 3.03812,1.439529 5.12441,1.853854 4.82458,0.958133 3.9157,0.725369 9.95733,2.550049 2.86866,0.866386 6.06923,1.701635 7.11238,1.856108 1.04315,0.154472 2.32663,0.549828 2.85218,0.878569 1.22289,0.764949 7.40042,1.934649 8.1448,1.542197 0.31101,-0.163979 1.16449,0.197098 1.89663,0.802392 1.17005,0.967349 6.22263,2.304636 8.91768,2.360279 0.52157,0.01077 1.37506,0.371845 1.89663,0.802393 1.05929,0.87442 7.27184,2.188895 8.15203,1.724837 0.31101,-0.163978 1.16449,0.179401 1.89663,0.763064 1.13575,0.90544 8.05722,2.88627 12.35924,3.537053 0.71502,0.108163 1.73002,0.465974 2.25557,0.795138 0.9025,0.565261 7.98276,2.098729 9.00178,1.949637 0.26079,-0.03815 0.9009,0.282893 1.42248,0.713441 1.05929,0.874419 7.27184,2.188895 8.15203,1.724837 0.31101,-0.163979 1.16449,0.197098 1.89663,0.802392 1.32324,1.094002 8.8345,2.871149 9.00901,2.131511 0.0503,-0.212902 0.69034,0.09706 1.42248,0.688796 0.73212,0.591741 2.61137,1.345739 4.17609,1.675552 2.60513,0.549109 6.15423,1.312238 8.53485,1.835168 0.52158,0.114569 1.37831,0.477623 1.90386,0.806786 1.22415,0.766714 8.49815,2.143975 8.61896,1.631916 0.0503,-0.212902 0.69034,0.108146 1.42248,0.713441 1.32324,1.094001 8.8345,2.871148 9.00901,2.13151 0.0503,-0.212902 0.69033,0.108146 1.42247,0.713441 1.17006,0.967348 6.22263,2.304636 8.91768,2.360278 0.52158,0.01077 1.37506,0.371846 1.89664,0.802394 0.52157,0.430547 2.65528,1.121808 4.74158,1.536133 4.82458,0.958133 3.9157,0.725369 9.95733,2.550049 2.86866,0.866386 6.06923,1.701634 7.11237,1.856107 1.04315,0.154473 2.32663,0.549829 2.85218,0.878571 0.92776,0.58034 6.61337,1.82039 8.52763,1.85992 0.52157,0.0108 1.37506,0.37184 1.89663,0.80239 1.05929,0.87442 7.27184,2.18889 8.15203,1.72484 0.31101,-0.16398 1.16449,0.19709 1.89663,0.80239 0.73213,0.60529 3.03812,1.43953 5.12441,1.85385 4.82458,0.95814 3.9157,0.72537 9.95733,2.55005 2.86866,0.86639 6.06923,1.70164 7.11238,1.85611 1.04315,0.15447 2.32663,0.54983 2.85218,0.87857 1.22289,0.76495 7.40042,1.93465 8.1448,1.5422 0.31101,-0.16398 1.16449,0.19709 1.89663,0.80239 1.35083,1.11681 7.49965,2.58834 8.53485,2.04256 0.31101,-0.16398 1.1645,0.19709 1.89664,0.80239 0.73212,0.60529 3.03811,1.43953 5.12441,1.85385 4.82458,0.95814 3.91569,0.72537 9.95732,2.55005 2.86866,0.86639 6.06923,1.70164 7.11238,1.85611 1.04315,0.15447 2.32663,0.54983 2.85218,0.87857 1.22511,0.76634 8.49825,2.14278 8.61896,1.63115 0.0503,-0.2129 0.69033,0.10814 1.42247,0.71344 1.04883,0.86713 5.89438,2.24182 9.39184,2.66447 0.26079,0.0315 0.90415,0.33208 1.4297,0.66793 0.52554,0.33584 2.65925,0.95017 4.74159,1.36517 4.821,0.96082 3.91364,0.72817 9.9501,2.55128 2.86866,0.86639 6.06923,1.70164 7.11237,1.85611 1.04315,0.15447 2.32663,0.54983 2.85218,0.87857 0.7569,0.47346 6.56378,1.86949 9.00179,2.16411 0.26078,0.0315 0.90415,0.33208 1.4297,0.66793 0.75606,0.48316 6.51987,1.87709 9.00178,2.17702 0.26079,0.0315 0.90416,0.33208 1.4297,0.66793 0.52554,0.33584 2.65926,0.95017 4.74159,1.36517 4.68595,0.9339 4.39937,0.85623 6.37874,1.72889 0.90441,0.39873 10.50612,15.40127 21.33713,33.33896 10.83101,17.9377 20.01829,32.61728 20.41616,32.6213 0.39788,0.004 12.77342,-8.8171 27.5012,-19.60249 14.72777,-10.7854 27.63126,-19.6172 28.67441,-19.62624 1.04315,-0.009 4.24371,0.69992 7.11237,1.57544 2.86866,0.87552 6.06923,1.71825 7.11238,1.87272 1.04315,0.15448 2.32663,0.54983 2.85218,0.87858 0.7569,0.47345 6.56377,1.86948 9.00178,2.1641 0.26079,0.0315 0.90416,0.33208 1.4297,0.66793 0.75607,0.48316 6.51987,1.87709 9.00179,2.17702 0.26079,0.0315 0.90415,0.33208 1.4297,0.66793 0.52554,0.33584 2.65925,0.95017 4.74159,1.36517 4.821,0.96083 3.91364,0.72817 9.9501,2.55129 2.86866,0.86638 6.06923,1.70163 7.11237,1.8561 1.04315,0.15448 2.32663,0.54983 2.85218,0.87858 0.7569,0.47345 6.56378,1.86948 9.00179,2.1641 0.26078,0.0315 0.90415,0.33208 1.4297,0.66793 0.75606,0.48316 6.51987,1.87709 9.00178,2.17702 0.26079,0.0315 0.90416,0.33209 1.4297,0.66793 0.758,0.48439 4.68299,1.44492 9.00179,2.20295 0.26079,0.0458 2.07444,0.63154 4.03035,1.30172 l 3.55618,1.21849 v 85.25692 85.25692 l -2.13371,0.48499 c -7.3726,1.67582 -11.97258,2.6256 -14.46183,2.98601 -1.56473,0.22655 -3.91181,0.67494 -5.21575,0.99641 -2.43897,0.60132 -3.19145,0.75775 -8.06069,1.67574 -3.88136,0.73174 -7.21755,1.40254 -9.48317,1.90677 -1.04315,0.23216 -3.17686,0.65891 -4.74158,0.94831 -3.62199,0.66993 -7.06851,1.35925 -9.48317,1.89664 -1.04315,0.23216 -3.17686,0.65891 -4.74159,0.94831 -1.56472,0.28942 -3.69843,0.71616 -4.74158,0.94832 -1.04315,0.23217 -2.96349,0.63549 -4.26743,0.89627 l -4.74158,0.94832 c -5.80082,1.16016 -7.31495,1.43781 -10.51615,1.92838 -1.87207,0.28687 -7.57339,1.37953 -12.66959,2.42811 -5.0962,1.04859 -9.39194,1.90652 -9.54608,1.90652 -0.15415,0 -13.01613,-10.8779 -28.58219,-24.17311 -15.56608,-13.29522 -28.59371,-24.17715 -28.95032,-24.18208 -0.3566,-0.005 -13.72552,15.97566 -29.70869,35.51243 -15.98318,19.53677 -29.98729,35.82837 -31.12025,36.20355 -1.13296,0.37518 -2.70003,0.79332 -3.4824,0.92918 -1.45052,0.25191 -4.76534,0.89265 -9.01409,1.7424 l -4.74158,0.94832 -4.74159,0.94831 -4.74158,0.94832 -4.74159,0.94832 -4.74158,0.94832 -4.74159,0.94831 -4.74158,0.94832 c -1.30394,0.26079 -3.32983,0.67216 -4.50197,0.91416 -1.17214,0.242 -3.62477,0.67051 -5.45028,0.95226 -1.82551,0.28174 -9.72025,1.83013 -17.54386,3.44087 -7.82362,1.61074 -15.29161,3.11415 -16.59555,3.34091 -1.30393,0.22677 -3.43765,0.62568 -4.74158,0.88646 l -4.74159,0.94832 c -1.30393,0.26079 -3.22427,0.66411 -4.26742,0.89626 -1.04315,0.23217 -3.17686,0.65891 -4.74159,0.94832 -3.62198,0.66993 -7.06851,1.35924 -9.48317,1.89663 -1.04315,0.23217 -2.96349,0.63549 -4.26742,0.89628 l -4.74159,0.94831 c -1.30393,0.26079 -3.65102,0.71096 -5.21574,1.00036 -1.56472,0.28942 -3.69844,0.71616 -4.74159,0.94832 -1.04314,0.23217 -3.17686,0.65891 -4.74158,0.94832 -1.56472,0.28942 -3.69844,0.71616 -4.74159,0.94832 -3.16539,0.70448 -6.46707,1.32767 -9.95732,1.87943 -1.82551,0.28858 -10.78711,2.03873 -19.91466,3.88922 -9.12755,1.85047 -17.6624,3.56166 -18.96634,3.80261 -1.30393,0.24096 -3.33211,0.6399 -4.50704,0.88653 -1.17495,0.24663 -3.09529,0.64995 -4.26743,0.89626 -1.17215,0.24633 -3.4114,0.68466 -4.97612,0.97407 -1.56473,0.28941 -3.69844,0.71616 -4.74159,0.94831 -1.04315,0.23217 -3.17686,0.65891 -4.74158,0.94832 -1.56473,0.28942 -3.69844,0.71616 -4.74159,0.94832 -1.04315,0.23216 -3.17686,0.65891 -4.74158,0.94831 -1.56473,0.28942 -3.69844,0.71616 -4.74159,0.94832 -1.04315,0.23217 -3.07132,0.64732 -4.50704,0.92257 -2.99829,0.57483 -6.41665,1.25567 -9.48317,1.88878 -1.17215,0.242 -3.62477,0.67612 -5.45028,0.96472 -1.82551,0.28858 -10.78711,2.03873 -19.91466,3.88921 -9.12755,1.85048 -17.55687,3.55008 -18.7318,3.77688 -1.17495,0.2268 -3.20311,0.62573 -4.50705,0.88652 l -4.74158,0.94832 c -1.30394,0.26078 -3.32983,0.67569 -4.50197,0.92201 -1.17215,0.24632 -3.30586,0.67307 -4.74158,0.94831 -1.43573,0.27526 -3.67728,0.71384 -4.98121,0.97463 -1.30394,0.26079 -3.54319,0.69912 -4.97612,0.97406 -1.43293,0.27495 -3.67219,0.71328 -4.97612,0.97407 l -4.74159,0.94831 c -1.30393,0.26079 -3.3321,0.67594 -4.50705,0.92257 -1.17494,0.24663 -3.20311,0.66179 -4.50704,0.92257 -1.30394,0.26079 -3.32982,0.67216 -4.50197,0.91416 -1.17214,0.242 -3.7105,0.68064 -5.6408,0.97474 -1.93029,0.2941 -6.54567,1.17339 -10.2564,1.95396 -7.85877,1.65314 -7.5536,1.62483 -7.63163,0.70799 z"
       id="path1258"
       transform="scale(0.26458333)" />
  </g>
</svg>
